<svg xmlns="http://www.w3.org/2000/svg" width="15.579" height="15.579" viewBox="0 0 15.579 15.579">
  <g id="Icon_ionic-md-chatbubbles" data-name="Icon ionic-md-chatbubbles" transform="translate(-3.375 -3.375)">
    <path id="Path_1" data-name="Path 1" d="M6.551,19.039a1.955,1.955,0,0,1-1.678-1.678V11.25h-.36a1.143,1.143,0,0,0-1.138,1.138V22.635l2.191-2.172h8.055a1.157,1.157,0,0,0,1.138-1.157v-.266Z" transform="translate(0 -3.681)" fill="#efefef"/>
    <path id="Path_2" data-name="Path 2" d="M19.849,3.375H9.393A1.311,1.311,0,0,0,8.086,4.682v8.467A1.314,1.314,0,0,0,9.393,14.46h8.92l2.842,1.985V4.682A1.311,1.311,0,0,0,19.849,3.375Z" transform="translate(-2.202)" fill="#efefef"/>
  </g>
</svg>
