<svg xmlns="http://www.w3.org/2000/svg" width="19" height="19" viewBox="0 0 19 19">
  <path id="Icon_awesome-plus" data-name="Icon awesome-plus" d="M17.643,9.714H11.536V3.607A1.357,1.357,0,0,0,10.179,2.25H8.821A1.357,1.357,0,0,0,7.464,3.607V9.714H1.357A1.357,1.357,0,0,0,0,11.071v1.357a1.357,1.357,0,0,0,1.357,1.357H7.464v6.107A1.357,1.357,0,0,0,8.821,21.25h1.357a1.357,1.357,0,0,0,1.357-1.357V13.786h6.107A1.357,1.357,0,0,0,19,12.429V11.071A1.357,1.357,0,0,0,17.643,9.714Z" transform="translate(0 -2.25)" fill="#950740"/>
</svg>
